<svg width="131" height="52" viewBox="0 0 131 52" fill="none" xmlns="http://www.w3.org/2000/svg">
<path fill-rule="evenodd" clip-rule="evenodd" d="M25.8866 0C40.1836 0 51.7748 11.64 51.7748 25.9992C51.7748 40.3601 40.1836 52 25.8866 52C11.5896 52 0 40.3601 0 25.9992C0 11.64 11.5896 0 25.8866 0ZM25.4507 9.81343C23.5806 9.81343 22.0118 10.4759 20.6347 11.8589C19.2799 13.2192 18.5978 14.8806 18.5978 16.9813C18.5978 19.1283 19.2293 20.6106 20.6193 21.8544C22.1988 23.2201 23.3622 23.9203 25.8916 25.0743L25.9022 25.0792L25.9128 25.0843C27.9161 26.0426 29.6408 27.0074 30.8657 28.1762C32.1461 29.3978 32.9026 30.8659 32.9026 32.7283C32.9026 34.5424 32.4053 36.1813 31.3312 37.4999L31.3231 37.5098L31.3148 37.5196C29.9388 39.1423 28.0832 39.8797 25.8294 39.8797V37.2797C27.4549 37.2797 28.5341 36.7835 29.3356 35.8436C29.9613 35.0705 30.3139 34.0486 30.3139 32.7283C30.3139 31.6885 29.9338 30.8732 29.0827 30.0611C28.1778 29.1976 26.7799 28.3795 24.8101 27.4366C22.1394 26.2176 20.7459 25.3958 18.9219 23.8177L18.9069 23.8044C16.8913 22.0054 16.009 19.7786 16.009 16.9813C16.009 14.2295 16.9374 11.895 18.8042 10.0204M18.8042 10.0204C20.6482 8.16851 22.8682 7.21343 25.4507 7.21343C27.8451 7.21343 29.8214 7.73331 31.4608 8.80289C33.0927 9.86743 34.2797 11.4042 35.2229 13.2474L32.9204 14.4359C32.1109 12.8539 31.1901 11.7265 30.0508 10.9833C28.9191 10.245 27.4611 9.81343 25.4507 9.81343M20.1773 16.6483C20.1773 13.7645 22.3942 11.2097 25.4506 11.2097V13.8096C23.96 13.8096 22.766 15.06 22.766 16.6483C22.766 17.2991 22.8636 17.7692 23.0564 18.1678C23.2469 18.5617 23.5754 18.9786 24.1787 19.4522L24.1809 19.4537C24.9392 19.9774 25.4775 20.3492 25.9171 20.5915L28.4538 21.9123C30.3663 22.8729 31.3486 23.3909 33.0017 24.6479C34.2217 25.5613 35.2197 26.6011 35.9234 27.9227C36.6276 29.2449 36.9927 30.7658 37.0697 32.5775L37.071 32.6052V32.633C37.071 35.5993 36.112 38.2026 34.1732 40.3144C32.0137 42.6981 29.1927 43.8759 25.8294 43.8759C22.8324 43.8759 20.2104 42.9163 18.0261 41.0431C15.8476 39.175 14.4825 36.7258 13.86 33.8616L16.3892 33.3073C16.904 35.676 18.0022 37.6039 19.7071 39.0658C21.4067 40.5232 23.4272 41.2759 25.8294 41.2759C28.5275 41.2759 30.6322 40.3612 32.261 38.5618L32.2675 38.5546C33.7314 36.9613 34.4765 35.0087 34.4822 32.6606C34.4151 31.1561 34.1179 30.0449 33.6407 29.1489C33.161 28.248 32.4552 27.4811 31.451 26.7298L31.4426 26.7236C29.9739 25.6064 29.1573 25.1726 27.2875 24.2336L27.279 24.2293L27.2706 24.2249L24.7126 22.893L24.7005 22.8866L24.6884 22.88C24.1263 22.5719 23.4857 22.1292 22.7975 21.6537C22.7587 21.6269 22.7198 21.6 22.6807 21.573L22.6507 21.5523L22.622 21.53C21.7742 20.8711 21.1385 20.1529 20.7278 19.3038C20.3166 18.4536 20.1773 17.5676 20.1773 16.6483Z" fill="white"/>
<path fill-rule="evenodd" clip-rule="evenodd" d="M68.7042 3.78119H65.2028V2.30696H73.7308V3.78119H70.2294V14.5921H68.7042V3.78119ZM82.6401 8.44959V14.5921H81.1841V8.74794C81.1841 7.53696 80.6814 6.94025 79.6761 6.94025C79.0001 6.94025 78.3762 7.30881 77.8388 8.02838C77.3015 8.74794 77.0415 9.67811 77.0415 10.8364V14.5921H75.5854V2.16656H77.0415V7.39656C77.5961 6.29089 78.7401 5.60642 80.0748 5.60642C81.6867 5.60642 82.6401 6.6068 82.6401 8.44959ZM92.9707 9.80096V10.4854H86.5574C86.6441 12.2229 87.5107 13.3988 89.0188 13.3988C90.2494 13.3988 90.9428 12.8548 91.4454 11.714L92.728 12.2756C91.9134 14.013 90.8214 14.7327 89.0188 14.7327C87.7534 14.7327 86.7828 14.2939 86.0894 13.4163C85.4134 12.5213 85.0668 11.4507 85.0668 10.1695C85.0668 8.88834 85.4134 7.81777 86.0894 6.94025C86.7828 6.04518 87.7534 5.60642 89.0188 5.60642C90.2494 5.60642 91.2201 6.01009 91.9134 6.83495C92.6241 7.64226 92.9707 8.62509 92.9707 9.80096ZM89.0188 6.94025C87.7187 6.94025 86.9214 7.80023 86.6441 9.1516H91.4454C91.1681 7.81777 90.3534 6.94025 89.0188 6.94025ZM66.6241 49.6928V37.4076H68.1495V49.6928H66.6241ZM78.3414 43.4625V49.6928H76.8854V43.8486C76.8854 42.6377 76.3827 42.0409 75.3775 42.0409C74.7014 42.0409 74.1121 42.4095 73.6094 43.129C73.1242 43.8486 72.8815 44.8139 72.8815 45.9897V49.6928H71.4255V40.8475H72.8815V42.4797C73.5401 41.3038 74.5108 40.7071 75.7761 40.7071C77.3708 40.7071 78.3414 41.7074 78.3414 43.4625ZM83.9228 40.7071C84.9801 40.7071 85.8294 41.1634 86.4535 42.0585L85.4654 42.9185C84.9281 42.3393 84.4081 42.0409 83.8707 42.0409C83.2641 42.0409 82.8135 42.4622 82.8135 43.1642C82.7962 44.7437 86.8867 44.4278 86.8694 47.0252C86.8694 48.7802 85.7601 49.8332 83.9748 49.8332C82.3281 49.8332 81.2188 48.7977 80.7161 47.4465L81.9467 46.762C82.4148 47.9203 83.0907 48.4995 83.9748 48.4995C84.9107 48.4995 85.3788 48.0432 85.3788 47.113C85.3788 46.5339 84.7374 46.1126 83.9575 45.8318C82.8135 45.393 81.3574 44.8314 81.3574 43.1465C81.3574 41.7426 82.3801 40.7071 83.9228 40.7071ZM89.764 42.1814H88.2561V40.8475H89.764V38.1974L91.2201 37.2673V40.8475H93.5081V42.1814H91.2201V47.0427C91.2201 47.973 91.636 48.4995 92.3814 48.4995C92.7627 48.4995 93.092 48.4118 93.3693 48.2187L93.7161 49.4998C93.3347 49.728 92.8668 49.8332 92.2948 49.8332C90.7521 49.8332 89.764 48.8329 89.764 46.92V42.1814ZM95.9867 49.6928V40.8475H97.4427V49.6928H95.9867ZM95.6228 38.3904C95.6228 37.7586 96.0907 37.2673 96.7148 37.2673C97.3387 37.2673 97.8068 37.7586 97.8068 38.3904C97.8068 39.0048 97.3387 39.4786 96.7148 39.4786C96.0907 39.4786 95.6228 39.0048 95.6228 38.3904ZM100.996 42.1814H99.4881V40.8475H100.996V38.1974L102.452 37.2673V40.8475H104.74V42.1814H102.452V47.0427C102.452 47.973 102.868 48.4995 103.613 48.4995C103.995 48.4995 104.324 48.4118 104.601 48.2187L104.948 49.4998C104.567 49.728 104.099 49.8332 103.527 49.8332C101.984 49.8332 100.996 48.8329 100.996 46.92V42.1814ZM107.097 47.0779V40.8475H108.553V46.6918C108.553 47.9028 109.056 48.4995 110.061 48.4995C110.737 48.4995 111.327 48.1309 111.812 47.4113C112.315 46.6918 112.557 45.7265 112.557 44.5506V40.8475H114.013V49.6928H112.557V48.0607C111.899 49.2365 110.928 49.8332 109.663 49.8332C108.068 49.8332 107.097 48.8329 107.097 47.0779ZM117.549 42.1814H116.041V40.8475H117.549V38.1974L119.005 37.2673V40.8475H121.293V42.1814H119.005V47.0427C119.005 47.973 119.421 48.4995 120.167 48.4995C120.548 48.4995 120.877 48.4118 121.155 48.2187L121.501 49.4998C121.12 49.728 120.652 49.8332 120.08 49.8332C118.537 49.8332 117.549 48.8329 117.549 46.92V42.1814ZM131 44.9016V45.5861H124.587C124.673 47.3236 125.54 48.4995 127.048 48.4995C128.279 48.4995 128.972 47.9555 129.475 46.8146L130.757 47.3763C129.943 49.1137 128.851 49.8332 127.048 49.8332C125.783 49.8332 124.812 49.3946 124.119 48.517C123.443 47.6219 123.096 46.5514 123.096 45.2702C123.096 43.989 123.443 42.9185 124.119 42.0409C124.812 41.1459 125.783 40.7071 127.048 40.7071C128.279 40.7071 129.249 41.1108 129.943 41.9357C130.653 42.7429 131 43.7257 131 44.9016ZM127.048 42.0409C125.748 42.0409 124.951 42.9009 124.673 44.2522H129.475C129.197 42.9185 128.383 42.0409 127.048 42.0409Z" fill="white"/>
<path d="M69.1211 19.9206C69.9195 19.9206 70.4723 20.1056 70.7179 20.229C71.4651 20.6041 72.0076 21.4007 72.2533 21.8489L71.025 22.5889C70.629 22.0645 70.3494 21.5858 69.8581 21.4624C69.4282 21.2774 68.6912 21.3391 68.4456 21.5241C68.3228 21.5858 68.0771 21.8325 67.9543 22.0175C67.8385 22.1919 67.7987 22.4514 67.77 22.6342C67.7119 23.0042 67.77 23.4359 67.9543 23.6826C68.0844 23.9004 68.409 24.2376 68.756 24.4227C69.103 24.6078 69.3627 24.8083 69.8614 25.0394C70.6598 25.4095 71.2126 25.7795 71.6425 26.0878C72.011 26.3962 72.318 26.7662 72.4408 26.9513C72.755 27.4245 72.8707 28.4314 72.8707 28.6164C72.8093 29.2948 72.7047 29.8423 72.3794 30.3433C72.065 30.8442 71.7039 31.2683 71.274 31.515C70.6598 31.9467 69.8598 32.1217 69.063 32.0701C67.1592 31.9467 65.7466 30.5899 65.501 28.8631L66.7907 28.0614C66.9135 28.6781 67.1592 29.3565 67.5277 29.7882C67.8962 30.2816 68.4883 30.6516 69.063 30.6516C69.8 30.7133 70.2658 30.4958 70.7212 30.1582C71.1767 29.8098 71.3354 29.3315 71.3354 28.6781C71.3968 28.1847 71.1522 27.8175 71.0112 27.5779C70.8703 27.3275 70.4541 26.9623 70.1071 26.7662C69.7709 26.5702 69.5543 26.4579 68.9402 26.1495C67.8347 25.5945 67.7268 25.6095 67.0363 24.9161C66.545 24.4227 66.238 23.8083 66.238 23.0042C66.238 22.3875 66.4836 21.7091 66.5417 21.5858C66.7293 21.1875 67.1187 20.7534 67.5858 20.414C68.2647 19.9206 69.1211 19.9206 69.1211 19.9206Z" fill="white"/>
<path d="M80.9414 30.2983C80.9414 30.6563 80.9414 30.697 80.9397 31.067C80.9377 31.4608 80.9414 31.4987 80.9414 31.8687H79.8342C79.7728 31.4987 79.7728 31.8071 79.7114 31.3137C79.6499 30.8203 79.7113 31.1287 79.6255 30.6516C78.913 31.4987 78.3273 32.0084 77.1689 32.0084C76.3 32.0084 75.8178 31.9304 75.1422 31.515C74.5895 31.067 74.4052 30.5283 74.2824 29.7882C74.2824 28.8486 74.4052 28.1847 75.0193 27.568C75.6335 26.9513 76.6694 26.6429 77.9058 26.6429H79.5026V26.2112C79.5026 25.5848 79.3121 25.1229 79.0113 24.8544C78.7105 24.5859 78.1901 24.468 77.5663 24.468C76.9202 24.468 76.0634 24.8997 75.8791 25.7632L74.6509 25.5165C74.7737 23.8513 76.6161 23.1112 77.5663 23.1729C78.6022 23.1729 79.6605 23.5757 80.1728 24.0902C80.6852 24.5936 80.9414 25.3151 80.9414 26.2547V30.2983ZM77.5618 30.697C78.1146 30.5119 78.4586 30.5283 79.0727 29.7882L79.257 29.4798L79.3798 29.1715L79.4412 28.9248L79.5026 28.4314V27.938L78.2743 27.8764C76.648 27.8764 75.6949 28.3081 75.7563 29.5415C75.7563 30.0672 76.0097 30.4026 76.5625 30.6493C77.1766 30.7726 77.3776 30.697 77.5618 30.697Z" fill="white"/>
<path d="M85.0033 32.0701C84.4353 32.0701 83.9841 31.9023 83.65 31.5667C83.3269 31.22 83.1654 30.739 83.1654 30.1238V19.4693L84.7026 19.2847V30.0902C84.7026 30.3363 84.7416 30.5153 84.8196 30.6271C84.9087 30.739 85.0535 30.7949 85.254 30.7949C85.4656 30.7949 85.655 30.7614 85.8221 30.6942L86.2231 31.7681C85.8555 31.9694 85.4489 32.0701 85.0033 32.0701Z" fill="white"/>
<path d="M94.5859 27.12C94.5859 27.3772 94.6081 27.6532 94.5859 27.9217H88.3216C88.3884 28.8949 88.7581 29.6216 89.1814 30.0802C89.7341 30.6353 90.2941 30.697 90.9624 30.697C91.3857 30.697 91.7608 30.5736 92.0679 30.3886C92.4244 30.2656 92.9891 29.4635 93.112 29.0935L94.3403 29.6485C94.2788 29.6208 93.8489 31.437 91.7608 31.9304C90.5325 32.0538 89.1814 32.0538 88.1374 31.0053C87.4004 30.1419 86.9091 29.1461 86.9091 27.7367C86.9091 26.8194 87.0493 26.1595 87.3389 25.4548C87.5846 24.6531 88.2671 24.0073 88.8129 23.6046C89.6113 23.2346 90.0934 23.1729 90.8397 23.1729C92.0093 23.1729 92.6206 23.4813 93.4804 24.2214C94.1042 24.9932 94.5859 25.7553 94.5859 27.12ZM93.0507 26.4416C92.8664 25.5781 92.6822 25.5165 92.3137 25.0231C91.8224 24.5914 91.5153 24.5914 90.8397 24.468C89.6114 24.5297 88.8745 24.8998 88.4446 26.6266H93.1121L93.0507 26.4416Z" fill="white"/>
<path d="M99.0813 23.0496C99.6829 23.0496 100.125 23.2963 100.371 23.4196C100.604 23.5365 101.169 23.9747 101.415 24.3447L100.466 25.2081C100.125 24.8381 99.8797 24.6531 99.7569 24.5914C99.5991 24.5122 99.5112 24.468 99.2994 24.4064C99.0813 24.3447 98.6063 24.3172 98.3167 24.5297C98.0711 24.7764 97.9827 24.797 97.9145 25.2081C97.8531 25.5781 97.9482 25.8248 98.2093 26.0715C98.4878 26.2729 98.808 26.5032 99.4836 26.7499C100.343 27.12 100.65 27.2433 101.203 27.675C101.693 28.1001 101.852 28.4786 101.852 29.2168C101.852 30.0893 101.633 30.6353 101.08 31.1903C100.405 31.7454 99.7293 32.002 98.6238 31.8687C97.0884 31.6837 96.29 30.5736 95.8601 29.5869L97.027 28.9085C97.5183 29.7719 97.8868 30.5736 99.0537 30.5736C99.6064 30.5736 99.9749 30.4503 100.221 30.0802C100.405 29.6485 100.343 29.8952 100.405 29.4472C100.405 29.1452 100.405 28.9641 100.282 28.7851C100.159 28.595 99.9135 28.3785 99.6064 28.2301C99.3057 28.0847 99.2799 28.1417 98.6238 27.86C97.6881 27.6139 97.3551 27.2255 96.9318 26.8116C96.6248 26.3799 96.4405 25.8248 96.4405 25.3315C96.4405 24.8381 96.5633 24.5297 96.7476 24.2213C97.0261 23.841 97.1898 23.5593 97.6688 23.3579C98.1589 23.1454 98.4798 23.0496 99.0813 23.0496Z" fill="white"/>
</svg>
