<svg width="35" height="24" viewBox="0 0 35 24" fill="none" xmlns="http://www.w3.org/2000/svg">
<path d="M34.0228 10.6888C33.2853 13.671 31.7767 16.4104 29.645 18.6248C29.511 18.7639 29.2957 18.7888 29.1314 18.6876L22.2614 14.4562C22.1248 14.372 21.9488 14.4703 21.9488 14.6308V22.977C21.9488 23.162 21.8255 23.3272 21.6471 23.3762C20.1378 23.7909 18.5841 23.9999 17.0232 23.9999C15.5258 24.0038 14.0355 23.8145 12.589 23.4387C12.408 23.3917 12.2822 23.2254 12.2822 23.0384V14.5439C12.2822 14.3836 12.1066 14.2853 11.9699 14.3691L4.91059 18.7008C4.74638 18.8016 4.53163 18.7766 4.39787 18.6379C2.26585 16.4276 0.75348 13.6922 0.01197 10.714C-0.0313498 10.54 0.0456616 10.3569 0.198496 10.2632L6.39288 6.4631L16.8373 0.0533964C16.969 -0.0274284 17.1349 -0.0273674 17.2666 0.0535574L27.6864 6.45899L33.8364 10.2388C33.9889 10.3325 34.0658 10.5151 34.0228 10.6888Z" fill="white"/>
</svg>
