<svg width="105" height="35" viewBox="0 0 105 35" fill="none" xmlns="http://www.w3.org/2000/svg">
<path fill-rule="evenodd" clip-rule="evenodd" d="M43.748 17.4998V0.312866H48.123V9.23104C49.7256 8.13877 51.6622 7.50021 53.7479 7.50021C59.2706 7.50021 63.7477 11.9773 63.7477 17.5001C63.7477 23.0229 59.2706 27.4999 53.7479 27.4999C48.2251 27.4999 43.748 23.0229 43.748 17.5001V17.4998ZM53.7479 23.1247C50.6413 23.1247 48.123 20.6063 48.123 17.4998C48.123 14.3932 50.6413 11.8748 53.7479 11.8748C56.8544 11.8748 59.3728 14.3932 59.3728 17.4998C59.3728 20.6063 56.8544 23.1247 53.7479 23.1247Z" fill="white"/>
<path fill-rule="evenodd" clip-rule="evenodd" d="M37.1862 25.7682V27.1865H41.5612V17.4992C41.5612 11.9764 37.0841 7.49931 31.5613 7.49931C26.0386 7.49931 21.5615 11.9764 21.5615 17.4992C21.5615 23.022 26.0386 27.4991 31.5613 27.4991C33.647 27.4991 35.5836 26.8604 37.1862 25.7682ZM25.9361 17.4992C25.9361 14.3927 28.4544 11.8742 31.561 11.8742C34.6676 11.8742 37.1859 14.3927 37.1859 17.4992C37.1859 20.6057 34.6676 23.1241 31.561 23.1241C28.4544 23.1241 25.9361 20.6057 25.9361 17.4992Z" fill="white"/>
<path d="M9.99987 11.8746C6.89335 11.8746 4.37492 14.393 4.37492 17.4996C4.37492 20.6061 6.89324 23.1245 9.99987 23.1245C12.3305 23.1245 14.3301 21.7069 15.1835 19.687H19.7597C18.7621 24.1577 14.7712 27.4994 9.99987 27.4994C4.47708 27.4994 0 23.0224 0 17.4996C0 11.9768 4.47708 7.4997 9.99987 7.4997C14.7712 7.4997 18.7621 10.8414 19.7597 15.3121H15.1835C14.3301 13.2922 12.3305 11.8746 9.99987 11.8746Z" fill="white"/>
<path d="M66.2471 7.81218V27.1865H70.622V7.81218H66.2471Z" fill="white"/>
<path d="M86.4866 0.646657C85.5544 0.23104 84.5219 0 83.4354 0C79.2933 0 75.9356 3.35775 75.9356 7.49982V7.81315L73.123 7.81338V12.1883H75.9356V27.1866H80.3105V12.1883H85.9353L92.0983 26.0306L90.8789 28.7693C90.1769 30.346 88.3297 31.055 86.7531 30.3531L84.9737 34.3497C88.7577 36.0345 93.1909 34.3327 94.8756 30.5488L104.998 7.81229H100.21L94.4928 20.6527L89.9321 10.4092C89.2071 8.7809 87.6096 7.8136 85.9353 7.81262L80.3105 7.81309V7.50012C80.3105 5.77421 81.7096 4.37522 83.4354 4.37522C83.8881 4.37522 84.3183 4.47148 84.7066 4.64464L86.4866 0.646942V0.646657Z" fill="white"/>
<path d="M70.9374 2.49994C70.9374 3.88067 69.8182 4.99988 68.4374 4.99988C67.0568 4.99988 65.9375 3.88056 65.9375 2.49994C65.9375 1.11921 67.0568 0 68.4374 0C69.8182 0 70.9374 1.11932 70.9374 2.49994Z" fill="white"/>
</svg>
