<svg width="159" height="30" viewBox="0 0 159 30" fill="none" xmlns="http://www.w3.org/2000/svg">
<mask id="mask0_501_14390" style="mask-type:luminance" maskUnits="userSpaceOnUse" x="0" y="0" width="159" height="30">
<path d="M158.266 0H0V30H158.266V0Z" fill="white"/>
</mask>
<g mask="url(#mask0_501_14390)">
<path fill-rule="evenodd" clip-rule="evenodd" d="M24.0577 18.144V11.8267C25.4683 11.6325 26.5553 10.4167 26.5553 8.9419C26.5553 7.3319 25.2597 6.0264 23.6619 6.0264C22.7305 6.0264 21.904 6.4718 21.3741 7.1615L15.9697 4.01761C16.1073 3.67789 16.185 3.30635 16.185 2.91549C16.185 1.30549 14.8895 0 13.2917 0C11.6939 0 10.3984 1.30549 10.3984 2.91549C10.3984 3.30294 10.475 3.67107 10.6104 4.00852L5.1868 7.16375C4.65797 6.4741 3.83146 6.0287 2.89897 6.0287C1.30121 6.0287 0.0056378 7.3342 0.0056378 8.9442C0.0056378 10.4201 1.09599 11.637 2.50883 11.8301V18.1418C1.09374 18.3315 0 19.5495 0 21.0289C0 22.6389 1.29557 23.9443 2.89333 23.9443C3.8247 23.9443 4.65007 23.499 5.1789 22.8116L10.6059 25.969C10.4672 26.3099 10.3905 26.6814 10.3905 27.0723C10.3905 28.6823 11.6861 29.9878 13.2838 29.9878C14.8816 29.9878 16.1772 28.6823 16.1772 27.0723C16.1772 26.6814 16.0993 26.3088 15.9607 25.9679L21.382 22.8138C21.9109 23.5023 22.7373 23.9466 23.6675 23.9466C25.2653 23.9466 26.5609 22.6411 26.5609 21.0311C26.5632 19.554 25.4717 18.3361 24.0577 18.144Z" fill="white"/>
<path fill-rule="evenodd" clip-rule="evenodd" d="M48.7761 17.867C48.1578 21.3564 45.6652 23.8954 41.396 23.8954C36.6517 23.8954 33.209 20.2367 33.209 15.0872C33.209 9.9377 36.6517 6.27905 41.396 6.27905C45.6652 6.27905 48.1578 8.818 48.7761 12.2618H44.3376C43.8886 11.0054 42.9644 10.2177 41.396 10.2177C39.0727 10.2177 37.719 12.2618 37.719 15.0872C37.719 17.867 39.0727 19.9568 41.396 19.9568C42.9644 19.9568 43.8886 19.1495 44.3376 17.867H48.7761Z" fill="white"/>
<path fill-rule="evenodd" clip-rule="evenodd" d="M50.5059 5.58158H54.8044V12.2556C55.4579 11.4712 56.6749 10.8698 58.0714 10.8698C60.8069 10.8698 62.4404 12.7067 62.4404 15.4717V23.7211H58.1419V16.5699C58.1419 15.4979 57.6489 14.7592 56.5534 14.7592C55.7139 14.7592 54.9899 15.2821 54.8044 16.1385V23.7211H50.5059V5.58158Z" fill="white"/>
<path d="M76.2324 19.2394C75.7894 22.137 73.6824 23.8951 70.4454 23.8951C66.6749 23.8951 64.1699 21.2319 64.1699 17.3642C64.1699 13.4964 66.7904 10.8137 70.3744 10.8137C74.1449 10.8137 76.2774 13.3792 76.2774 17.1037V18.1976H68.3129C68.4539 19.6952 69.2249 20.5026 70.4454 20.5026C71.3124 20.5026 72.0124 20.125 72.2499 19.2459H76.2324V19.2394ZM70.3744 14.2061C69.3469 14.2061 68.6659 14.8703 68.3834 16.0358H72.1279C72.0384 15.0135 71.4279 14.2061 70.3744 14.2061Z" fill="white"/>
<path fill-rule="evenodd" clip-rule="evenodd" d="M85.8281 23.7208L82.2991 13.6588V23.7208H78.1826V6.80221H83.5701L87.2861 17.336L90.9766 6.80221H96.3446V23.7208H92.2026V13.6588L88.6991 23.7208H85.8281Z" fill="white"/>
<path d="M110.525 17.3414C110.525 21.2072 107.914 23.8951 104.138 23.8951C100.343 23.8951 97.7256 21.2137 97.7256 17.3414C97.7256 13.4755 100.336 10.8137 104.138 10.8137C107.908 10.8202 110.525 13.4755 110.525 17.3414ZM102.048 17.3414C102.048 19.0725 102.784 20.2831 104.138 20.2831C105.466 20.2831 106.228 19.0725 106.228 17.3414C106.228 15.6362 105.466 14.4257 104.138 14.4257C102.784 14.4257 102.048 15.6362 102.048 17.3414Z" fill="white"/>
<path fill-rule="evenodd" clip-rule="evenodd" d="M112.262 11.1024H116.558V12.2048C117.211 11.4174 118.428 10.8137 119.824 10.8137C122.558 10.8137 124.19 12.6575 124.19 15.4332V23.7141H119.894V16.5355C119.894 15.4594 119.401 14.7179 118.306 14.7179C117.468 14.7179 116.744 15.2429 116.552 16.109V23.7207H112.256V11.1024H112.262Z" fill="white"/>
<path d="M134.389 22.6161C133.798 23.2786 132.591 23.8955 131.312 23.8955C127.715 23.8955 125.747 20.9796 125.747 17.3558C125.747 13.7774 127.715 10.842 131.312 10.842C132.591 10.842 133.798 11.4784 134.389 12.1408V5.58158H138.72V23.6033H134.389V22.6161ZM134.389 15.7257C134.084 15.0373 133.325 14.5632 132.467 14.5632C130.974 14.5632 130.104 15.7711 130.104 17.3558C130.104 18.9663 130.981 20.1743 132.467 20.1743C133.344 20.1743 134.078 19.7002 134.389 19.0183V15.7257Z" fill="white"/>
<path d="M143.192 5.40685C144.52 5.40685 145.639 6.316 145.639 7.7419C145.639 9.1939 144.52 10.1031 143.192 10.1031C141.888 10.1031 140.796 9.1939 140.796 7.7419C140.789 6.3095 141.888 5.40685 143.192 5.40685ZM145.357 23.7208H141.07V11.1496H145.357V23.7208Z" fill="white"/>
<path fill-rule="evenodd" clip-rule="evenodd" d="M151.246 19.7408C151.414 20.4506 152.046 20.8347 152.82 20.8347C153.523 20.8347 154.065 20.5482 154.065 19.9557C154.065 19.5064 153.736 19.3371 153.097 19.1939L150.698 18.6729C148.602 18.2692 147.286 17.2469 147.286 15.0396C147.286 12.3764 149.64 10.8137 152.53 10.8137C155.916 10.8137 157.8 12.4285 158.148 14.8963H154.149C154.033 14.3494 153.652 13.9001 152.665 13.9001C152.027 13.9001 151.491 14.1866 151.491 14.7075C151.491 15.1112 151.775 15.3 152.336 15.4172L154.807 16.0098C157.045 16.5307 158.264 17.7418 158.264 19.7603C158.264 22.417 155.865 23.8951 152.852 23.8951C149.705 23.8951 147.395 22.443 147.021 19.7408H151.246Z" fill="white"/>
</g>
</svg>
