<svg width="108" height="30" viewBox="0 0 108 30" fill="none" xmlns="http://www.w3.org/2000/svg">
<g clip-path="url(#clip0_1212_236)">
<path d="M107.406 1.76485V1.92528C107.326 2.0055 107.246 2.0055 107.246 2.08571C107.246 2.16592 106.764 4.09106 106.443 5.05362C106.123 6.01619 106.203 6.01619 106.123 6.41726C105.952 6.88749 105.818 7.37021 105.721 7.86111C105.561 8.42261 105.481 8.98411 105.32 9.46539L104.598 12.4333C104.582 12.6291 104.527 12.8197 104.438 12.9948C104.358 13.4761 104.197 13.9574 104.117 14.4387C104.105 14.5517 104.134 14.6654 104.197 14.7595C104.197 14.9199 104.278 15.0001 104.278 15.1606L104.759 17.0055C104.839 17.3264 104.839 17.567 104.919 17.8878C105.069 18.619 105.256 19.3419 105.481 20.0536C105.577 20.5708 105.711 21.0802 105.882 21.5777C106.042 22.059 106.123 22.5403 106.283 23.0215L106.524 24.4654C106.674 25.1174 106.861 25.7601 107.085 26.3905C107.106 26.7091 107.218 27.0151 107.406 27.2729C107.379 27.3722 107.379 27.4771 107.407 27.5761C107.436 27.6752 107.491 27.7645 107.566 27.8344V28.075C107.553 28.3714 107.58 28.6682 107.647 28.9574C107.727 29.3584 107.727 29.4387 107.326 29.4387H100.909C100.508 29.4387 100.347 29.2782 100.267 28.8772C100.292 28.7381 100.263 28.5949 100.187 28.4761C100.187 28.3959 100.106 28.3157 100.026 28.2354C100.026 27.9948 100.106 27.6739 99.8658 27.4333V27.2729C99.8658 27.0322 99.9461 26.7916 99.7054 26.7114V26.551C99.5597 25.9433 99.4526 25.3271 99.3846 24.706L99.1439 23.9841V23.8237C99.1439 23.6633 99.2241 23.5028 99.1439 23.3424C99.0266 23.0597 98.9458 22.7632 98.9033 22.46C98.8443 22.0995 98.7364 21.7486 98.5824 21.4173V21.2568C98.5353 20.7556 98.3995 20.2667 98.1814 19.813V29.198C98.1814 29.2831 98.1476 29.3647 98.0874 29.4249C98.0272 29.4851 97.9456 29.5189 97.8605 29.5189H90.8819V1.12314C90.8751 0.932698 90.9022 0.742562 90.9621 0.561646H98.1814V10.9092H98.2616C98.3418 10.5884 98.5022 10.2675 98.5824 9.94667C98.6626 9.62582 98.9033 8.18197 99.1439 7.29961V6.73812C99.1439 6.57769 99.2241 6.49748 99.2241 6.33705C99.2241 6.17662 99.3846 5.45469 99.545 5.05362C99.6374 4.68589 99.6911 4.30952 99.7054 3.93063C99.9461 3.7702 99.8658 3.60977 99.8658 3.36913V2.96806C100.106 2.72742 100.026 2.48678 100.026 2.16592C100.267 2.16592 100.187 2.0055 100.187 1.92528L100.427 0.962715C100.588 0.561646 100.588 0.561646 100.989 0.561646H107.566V0.962715C107.451 1.05687 107.371 1.18849 107.342 1.33491C107.313 1.48132 107.335 1.63337 107.406 1.76485Z" fill="white"/>
<path d="M77.8871 0.561589H78.4486L80.2133 0.160519L81.1758 9.15527e-05H82.2988L84.3844 0.320947H85.2668C85.347 0.561589 85.5074 0.561589 85.6678 0.561589C85.748 0.722017 85.9085 0.722017 86.1491 0.722017C86.1491 0.962658 86.3095 0.882444 86.47 0.882444C86.47 0.914046 86.4762 0.945338 86.4883 0.974534C86.5004 1.00373 86.5181 1.03026 86.5405 1.0526C86.5856 1.09773 86.6468 1.12309 86.7106 1.12309C86.9938 1.43265 87.3176 1.70247 87.6732 1.92523C87.7934 2.25571 88.0189 2.53755 88.3149 2.72736L88.4753 2.96801C88.6358 3.20865 88.716 3.5295 88.8764 3.77014C89.0368 4.01079 88.9566 3.93057 89.0368 4.01079C89.0368 4.17121 89.0368 4.41186 89.2775 4.49207V5.61506C89.3696 5.95559 89.4234 6.30536 89.4379 6.65785C89.5181 8.74341 89.5181 10.829 89.5181 12.8343C89.5181 12.9947 89.4379 13.1552 89.4379 13.3958H83.1812C83.0508 13.4069 82.9196 13.3912 82.7954 13.3499C82.6713 13.3085 82.5569 13.2422 82.4593 13.1552V7.37977C82.4593 7.13913 82.3791 6.89849 82.3791 6.65785C82.3421 6.49529 82.2499 6.35055 82.1184 6.2482C81.9868 6.14584 81.8238 6.09219 81.6571 6.09635C81.4939 6.10524 81.3373 6.16378 81.2083 6.26413C81.0793 6.36448 80.984 6.50185 80.9352 6.65785C80.9352 6.89849 80.855 7.13913 80.855 7.37977V22.6204C80.855 22.7808 80.9352 22.9413 80.9352 23.1017V23.2621C80.855 23.6632 81.1759 23.8236 81.4165 23.984C81.5347 24.0284 81.6616 24.0443 81.7871 24.0303C81.9125 24.0164 82.0329 23.9731 82.1384 23.9038C82.2839 23.7927 82.3975 23.6452 82.4679 23.4763C82.5383 23.3073 82.563 23.1228 82.5395 22.9413V15.8022C84.8641 15.6818 87.1935 15.6818 89.5181 15.8022V21.8985C89.5737 23.1795 89.3831 24.4593 88.9566 25.6685C88.6518 26.3656 88.2464 27.0142 87.7534 27.5937L86.5502 28.6365C86.0585 28.9825 85.5177 29.2529 84.9459 29.4386C83.9518 29.7159 82.929 29.8774 81.8978 29.9199C81.6364 30.0003 81.357 30.0003 81.0956 29.9199L79.6518 29.7594C78.8353 29.6799 78.0437 29.4343 77.3256 29.0375C77.1652 28.9573 76.9245 28.9573 76.8443 28.7969C76.1643 28.3727 75.5665 27.8292 75.0796 27.1926C74.8199 26.8754 74.6041 26.5246 74.4379 26.1498C74.3778 25.9846 74.265 25.8437 74.117 25.7488H74.0368C74.0222 25.5011 73.968 25.2574 73.8764 25.0268C73.7565 24.256 73.6762 23.4796 73.6357 22.7006V7.37977C73.6515 6.48354 73.7863 5.59338 74.0368 4.73271C74.117 4.6525 74.0368 4.49207 74.0368 4.41186H74.117L74.4379 3.93057C74.7852 3.06498 75.3689 2.31449 76.1224 1.7648L76.4432 1.36373L77.4058 0.882444V0.722017H77.486C77.7267 0.802231 77.8871 0.802231 77.8871 0.561589Z" fill="white"/>
<path d="M23.3411 29.2781C23.4214 29.2781 23.3411 29.2781 23.3411 29.1979C23.2337 28.7361 23.0998 28.2808 22.9401 27.8343C22.7628 27.1547 22.5485 26.4852 22.2984 25.8289L21.3358 23.0214L20.8545 21.8182C20.7556 22.0745 20.7014 22.3458 20.6941 22.6204V28.8771C20.6941 29.4386 20.6139 29.4386 20.1326 29.4386H15.6406C15.0791 29.4386 15.0791 29.4386 15.0791 28.9573V8.3423C15.0791 7.78081 15.0791 7.70059 15.7208 7.70059H19.6513C19.8117 7.70059 19.8919 7.78081 19.9722 7.94123L20.4534 9.38508C20.6305 10.0911 20.8447 10.7872 21.0951 11.4706L21.8171 13.5562C21.9547 14.1565 22.1993 14.727 22.539 15.2407V8.02145C22.539 7.70059 22.6192 7.70059 22.9401 7.70059H27.8331C28.154 7.70059 28.2342 7.78081 28.2342 8.10166V28.9573C28.2342 29.4386 28.2342 29.5188 27.7529 29.5188H23.9829C23.7479 29.5131 23.5218 29.4284 23.3411 29.2781Z" fill="white"/>
<path d="M37.218 29.4386H30.3196C30.0789 29.4386 29.9987 29.3584 29.9987 29.1177V7.21934C29.9987 6.33699 29.9185 6.49742 29.2768 6.49742H26.1484V1.12308C26.1484 0.6418 26.1484 0.6418 26.6297 0.6418H47.6458L49.3303 0.802228L50.3731 1.04287C51.2598 1.246 52.0849 1.65858 52.7795 2.24608C53.5764 2.90688 54.139 3.80704 54.3838 4.81292H54.464C54.7451 5.58207 54.8546 6.4034 54.7848 7.21934C54.7848 8.90383 54.7848 10.6685 54.7046 12.353C54.69 12.6007 54.6358 12.8444 54.5442 13.075L54.3035 13.7969C53.9675 14.7163 53.3129 15.4847 52.4586 15.9627L52.218 16.1231L52.5388 16.4439C53.1455 16.8755 53.663 17.4202 54.0629 18.0482C54.1431 18.3691 54.3035 18.6899 54.3838 18.9306C54.7527 19.8736 54.8902 20.8913 54.7848 21.8985C54.7848 23.583 54.7848 25.2675 54.865 26.952C54.9453 28.6365 55.0255 28.5562 55.1057 29.3584H48.0469C47.8618 28.6775 47.7542 27.9779 47.726 27.2728V21.2568C47.6852 20.9909 47.6852 20.7205 47.726 20.4546C47.7371 20.2258 47.6825 19.9985 47.5689 19.7996C47.4552 19.6006 47.2871 19.4383 47.0843 19.3316C46.9818 19.2557 46.861 19.2082 46.7341 19.1941C46.6073 19.18 46.479 19.1998 46.3624 19.2514C46.2821 19.2514 46.2019 19.4119 46.2019 19.4921C46.1362 19.7268 46.1091 19.9706 46.1217 20.214V28.3958C46.1022 28.613 46.1296 28.8318 46.2019 29.0375C46.2038 29.1314 46.1727 29.2229 46.1141 29.2962C46.0555 29.3694 45.973 29.4198 45.8811 29.4386H39.2233C39.0629 29.4386 38.9827 29.2782 38.9827 29.1177V7.37977C38.9827 6.49742 39.2233 6.49742 38.1003 6.49742H37.5388C37.4537 6.49742 37.3721 6.53122 37.3119 6.59139C37.2518 6.65156 37.218 6.73317 37.218 6.81827V29.4386ZM46.1217 9.94661V13.1552C46.1217 13.476 46.2019 13.5562 46.5228 13.5562C46.669 13.5817 46.819 13.573 46.9613 13.5309C47.1035 13.4887 47.2341 13.4143 47.3428 13.3133C47.4516 13.2123 47.5355 13.0876 47.588 12.9489C47.6406 12.8101 47.6603 12.6611 47.6458 12.5135C47.726 10.7488 47.726 8.98405 47.6458 7.29955C47.658 7.15953 47.6395 7.01853 47.5914 6.88645C47.5433 6.75438 47.4669 6.63443 47.3675 6.53504C47.2681 6.43565 47.1482 6.35924 47.0161 6.31117C46.884 6.26309 46.743 6.24453 46.603 6.25677C46.2821 6.25677 46.1217 6.33699 46.1217 6.73806V9.94661Z" fill="white"/>
<path d="M72.2717 12.5134V22.5402C72.3269 23.5862 72.1346 24.6306 71.7102 25.5883C71.2995 26.7717 70.5101 27.7866 69.4642 28.476C68.4032 29.2426 67.1574 29.7133 65.8546 29.8396H64.4107C63.0757 29.93 61.7366 29.7387 60.4803 29.2781C59.3117 28.9704 58.2891 28.2603 57.5926 27.2728C57.2623 26.9476 56.9909 26.5677 56.7904 26.1498C56.4299 25.3605 56.1867 24.5228 56.0685 23.6632C55.9883 22.3797 55.9883 21.0161 55.9883 19.7327V1.60434C55.9883 0.882416 55.9883 0.882416 56.7102 0.882416H62.9669C63.1273 0.882416 63.2075 1.04284 63.2075 1.20327V22.3797C63.2075 22.7006 63.2878 23.1017 63.2878 23.4225C63.2878 23.7434 63.5284 23.984 63.8492 23.984C64.1701 23.984 64.5712 24.1444 64.8118 23.8236L65.0525 23.4225C65.0525 23.1017 65.1327 22.7006 65.1327 22.3797V1.60434C65.1327 0.882416 65.1327 0.882416 65.8546 0.882416H71.8706C72.2717 0.882416 72.2717 0.96263 72.2717 1.28349V12.5134Z" fill="white"/>
<path d="M13.7958 18.6097V22.3798C13.7958 23.1819 13.7958 23.984 13.7156 24.7862C13.6395 25.4296 13.4494 26.0544 13.1541 26.6311C12.8612 27.1305 12.5398 27.6125 12.1915 28.075C12.1113 28.075 12.1113 28.1552 12.0311 28.2354L10.8279 29.0375C10.0567 29.4446 9.2106 29.6903 8.34128 29.7594H7.45892C6.24105 29.8641 5.01448 29.7279 3.84929 29.3584C3.30253 29.1722 2.78828 28.9015 2.32523 28.5562C1.71735 28.0622 1.20142 27.4648 0.801163 26.7915C0.293445 25.9161 0.0432045 24.9152 0.0792374 23.9038C-0.000976562 22.1391 -0.000976562 20.3744 -0.000976562 18.6097V13.2354C0.0355334 12.4394 0.197977 11.6543 0.480307 10.9092C0.753478 10.1768 1.1928 9.51787 1.76373 8.98404C2.32644 8.48827 2.98033 8.10684 3.68887 7.86105C4.80135 7.49902 5.96897 7.3361 7.13807 7.37976H8.34128C9.14141 7.44325 9.92649 7.63275 10.6675 7.94126C11.4849 8.40236 12.1957 9.03108 12.753 9.78618C13.072 10.2242 13.3159 10.7121 13.475 11.23C13.7438 12.1951 13.8522 13.1977 13.7958 14.1979V18.6097ZM6.1755 18.6097V24.2247C6.25571 24.6258 6.49635 24.8664 6.81721 24.8664C7.13807 24.8664 7.45892 24.7862 7.53913 24.3049C7.6283 24.1298 7.68278 23.9392 7.69956 23.7434V13.476C7.68442 13.2024 7.6304 12.9323 7.53913 12.6739C7.51912 12.6186 7.48719 12.5684 7.4456 12.5268C7.40402 12.4852 7.3538 12.4533 7.29849 12.4332C6.65678 12.1926 6.25571 12.4332 6.1755 13.075V18.6097Z" fill="white"/>
</g>
<defs>
<clipPath id="clip0_1212_236">
<rect width="107.808" height="30" fill="white"/>
</clipPath>
</defs>
</svg>
