<svg width="143" height="35" viewBox="0 0 143 35" fill="none" xmlns="http://www.w3.org/2000/svg">
<path d="M6.45568 9.9278C5.40476 10.9787 4.65409 12.1798 3.90343 13.3808L2.85251 12.7803C2.70238 12.1798 1.95172 11.7294 1.35119 11.7294C0.450396 11.8795 0 12.48 0 13.3808C0 14.1315 0.75066 14.732 1.50132 14.5819C1.65145 14.5819 1.80158 14.5819 1.95172 14.4318L3.00264 15.0323C2.40211 16.3835 1.95172 17.7347 1.80158 19.236L3.60317 19.5362C4.2037 16.3835 5.55489 13.531 7.80687 11.279L6.45568 9.9278Z" fill="white"/>
<path d="M19.218 4.52302C18.7676 4.52302 18.4673 4.52302 18.0169 4.52302L17.8668 3.0217C18.3172 2.72144 18.6175 2.12091 18.4673 1.52038C18.3172 0.619586 17.5665 -0.131075 16.6658 0.0190574C15.765 0.169189 15.1644 0.91985 15.1644 1.97077C15.3146 2.5713 15.6148 3.0217 16.0652 3.32196L16.2154 4.82328C14.5639 5.12355 12.9125 5.57394 11.4111 6.3246L12.1618 7.97606C14.2636 6.92513 16.6658 6.3246 19.0679 6.3246C20.2689 6.3246 21.3198 6.47474 22.5209 6.775L22.8212 4.97342C21.7702 4.67315 20.5692 4.52302 19.218 4.52302Z" fill="white"/>
<path d="M34.6807 10.5284C35.4314 10.3783 36.0319 9.77775 35.8818 8.87695C35.7317 8.12629 35.1311 7.52577 34.3805 7.6759C33.6298 7.82603 33.1794 8.42656 33.1794 9.17722L32.1285 10.078C31.0776 9.02709 30.0267 8.12629 28.8256 7.37563L27.9248 8.87695C30.4771 10.5284 32.5789 12.9305 33.9301 15.783L35.5815 15.0324C34.981 13.6812 34.2303 12.4801 33.3296 11.2791L34.2304 10.3783C34.3805 10.5284 34.5306 10.5284 34.6807 10.5284Z" fill="white"/>
<path d="M18.0162 28.6945C17.1154 28.6945 16.2146 28.8447 15.3138 28.8447C13.212 28.8447 11.2603 28.6945 9.4587 28.3943C8.5579 28.2441 7.50698 27.9439 6.45605 27.6436C8.85817 31.9974 13.6624 35.0001 19.0671 35.0001C25.673 35.0001 31.378 30.4961 32.8793 24.3407C31.2278 25.3916 29.4263 26.2924 27.1743 27.0431C24.4719 27.9439 21.3191 28.5444 18.0162 28.6945Z" fill="white"/>
<path d="M25.2222 21.338C23.4206 21.338 22.0694 19.8367 22.0694 18.1852C22.0694 16.3836 23.5707 15.0324 25.2222 15.0324C27.0238 15.0324 28.375 16.5337 28.375 18.1852C28.375 19.9868 27.0238 21.338 25.2222 21.338ZM14.2625 23.59C11.8604 23.59 9.90872 21.6382 9.90872 19.2361C9.90872 16.6839 11.8604 14.7322 14.2625 14.7322C16.6647 14.7322 18.6164 16.6839 18.6164 19.086C18.6164 21.4881 16.6647 23.59 14.2625 23.59ZM19.2169 8.12635C11.41 8.12635 5.10449 14.4319 5.10449 22.2388C5.10449 23.2897 5.25462 24.1905 5.40476 25.2414C6.90608 26.4425 11.7103 27.3433 17.8657 27.043C24.6217 26.5926 30.1765 24.791 33.4795 21.9385C33.4795 21.4881 33.4795 21.0377 33.3293 20.5873C32.4285 13.381 26.4232 8.12635 19.2169 8.12635Z" fill="white"/>
<path d="M57.6851 9.38387C57.0002 9.24688 55.9043 8.83592 54.6714 8.97291C53.4385 9.10989 52.8906 9.65784 52.8906 11.1647V13.0825H57.6851V16.7811H52.8906V28.5619H48.781V16.7811H45.9043V13.0825H48.781V11.0277C48.781 7.32907 50.6988 5.00031 54.2605 5.00031C55.6303 5.00031 56.7262 5.27428 57.6851 5.68524V9.38387Z" fill="white"/>
<path d="M67.6855 16.6441C67.2746 16.6441 67.0006 16.5071 66.5896 16.5071C64.6718 16.5071 63.302 17.74 63.302 20.0687V28.5619H59.1924V12.9454H63.165V14.5893C64.1239 13.0824 65.6307 12.5345 67.4116 12.5345C68.2335 12.5345 69.1924 12.8084 69.7403 13.2194L67.6855 16.6441Z" fill="white"/>
<path d="M73.1655 19.2466H80.0148C79.6039 17.1918 78.508 16.0959 76.7272 16.0959C74.6724 16.2329 73.5765 17.3288 73.1655 19.2466ZM84.1244 20.7535C84.1244 21.1644 84.1244 21.8494 83.9874 22.1233H73.1655C73.5765 24.3151 75.2203 25.411 77.1381 25.411C78.508 25.411 79.8778 24.8631 80.9737 23.9042L83.4395 26.6439C81.6587 28.2877 79.4669 28.9727 76.8641 28.9727C72.2066 28.9727 68.9189 25.685 68.9189 20.8905C68.9189 15.959 72.0696 12.6713 76.7272 12.6713C81.1107 12.5343 84.1244 15.822 84.1244 20.7535Z" fill="white"/>
<path d="M89.4663 19.2466H96.3156C95.9047 17.1918 94.8088 16.0959 93.0279 16.0959C90.9731 16.2329 89.8773 17.3288 89.4663 19.2466ZM100.425 20.7535C100.425 21.1644 100.425 21.8494 100.288 22.1233H89.4663C89.8773 24.3151 91.5211 25.411 93.4389 25.411C94.8088 25.411 96.1786 24.8631 97.2745 23.9042L99.7403 26.6439C97.9594 28.2877 95.7677 28.9727 93.1649 28.9727C88.5074 28.9727 85.2197 25.685 85.2197 20.8905C85.2197 15.959 88.3704 12.6713 93.0279 12.6713C97.4115 12.5343 100.425 15.822 100.425 20.7535Z" fill="white"/>
<path d="M106.178 20.7537C106.178 23.2194 107.822 25.0003 110.151 25.0003C112.617 25.0003 114.124 23.0824 114.124 20.7537C114.124 18.4249 112.617 16.5071 110.151 16.5071C107.822 16.5071 106.178 18.2879 106.178 20.7537ZM118.37 20.7537C118.37 25.4112 115.219 28.9729 110.973 28.9729C108.918 28.9729 107.411 28.1509 106.452 26.9181V35.0003H102.343V13.0824H106.452V14.8633C107.411 13.6304 108.918 12.8085 110.973 12.8085C115.082 12.5345 118.37 16.0961 118.37 20.7537Z" fill="white"/>
<path d="M124.399 28.425H120.289V12.9455H124.399V28.425ZM124.947 7.87705C124.947 9.3839 123.851 10.4798 122.344 10.4798C120.837 10.4798 119.741 9.3839 119.741 7.87705C119.741 6.37021 120.837 5.13733 122.344 5.13733C123.851 5.27432 124.947 6.37021 124.947 7.87705Z" fill="white"/>
<path d="M131.248 18.5619L137.002 13.0825H142.07L134.673 20.3427L142.207 28.5619H137.139L131.248 22.1236V28.4249H127.139V5.41123H131.248V18.5619Z" fill="white"/>
</svg>
