<svg width="173" height="30" viewBox="0 0 173 30" fill="none" xmlns="http://www.w3.org/2000/svg">
<path fill-rule="evenodd" clip-rule="evenodd" d="M15.6382 2.81057C8.60221 2.81057 2.89747 8.51531 2.89747 15.5513C2.89747 20.8287 6.10609 25.3592 10.684 27.2933C11.3631 27.5804 11.6808 28.3625 11.3937 29.0416C11.1076 29.7207 10.3245 30.0384 9.64543 29.7513C4.11533 27.4141 0.229492 21.9379 0.229492 15.5513C0.229492 7.04105 7.12795 0.142593 15.6382 0.142593C24.1484 0.142593 31.0477 7.04105 31.0477 15.5513C31.0477 21.9379 27.1619 27.4141 21.6309 29.7513C20.9527 30.0384 20.1696 29.7207 19.8835 29.0416C19.5965 28.3625 19.9142 27.5804 20.5932 27.2933C25.1702 25.3592 28.3788 20.8287 28.3788 15.5513C28.3788 8.51531 22.675 2.81057 15.6382 2.81057Z" fill="white"/>
<path fill-rule="evenodd" clip-rule="evenodd" d="M7.26598 10.4276C7.93669 10.1229 8.72724 10.4192 9.03194 11.0899L11.7278 17.0195L14.4227 11.0899C14.6391 10.6143 15.1138 10.3086 15.6368 10.3086C16.1608 10.3086 16.6355 10.6143 16.8519 11.0899L19.5468 17.0195L22.2418 11.0899C22.5464 10.4192 23.3379 10.1229 24.0086 10.4276C24.6793 10.7332 24.9757 11.5237 24.671 12.1944L20.761 20.7957C20.5445 21.2722 20.0698 21.5779 19.5468 21.5779C19.0238 21.5779 18.5491 21.2722 18.3318 20.7957L15.6368 14.8671L12.9419 20.7957C12.7255 21.2722 12.2508 21.5779 11.7278 21.5779C11.2038 21.5779 10.7291 21.2722 10.5127 20.7957L6.60363 12.1944C6.29801 11.5237 6.59527 10.7332 7.26598 10.4276Z" fill="white"/>
<path d="M44.7118 22.854C42.8623 22.854 41.3927 22.3375 40.3039 21.3054C39.2142 20.2594 38.6689 18.7545 38.6689 16.7897V13.2634C38.6689 11.2996 39.2142 9.80118 40.3039 8.7691C41.3927 7.72309 42.8623 7.20009 44.7118 7.20009C46.5614 7.20009 48.0301 7.72309 49.1197 8.7691C50.2234 9.80118 50.7752 11.2996 50.7752 13.2634V16.7897C50.7752 18.7545 50.2234 20.2594 49.1197 21.3054C48.0301 22.3375 46.5614 22.854 44.7118 22.854ZM44.7118 20.7685C45.9018 20.7685 46.8187 20.4238 47.4643 19.7364C48.109 19.0332 48.4314 18.0801 48.4314 16.8761V13.1779C48.4314 11.9731 48.109 11.0274 47.4643 10.339C46.8187 9.63675 45.9018 9.2856 44.7118 9.2856C43.5506 9.2856 42.6402 9.63675 41.9807 10.339C41.3211 11.0274 40.9913 11.9731 40.9913 13.1779V16.8761C40.9913 18.0801 41.3211 19.0332 41.9807 19.7364C42.6402 20.4238 43.5506 20.7685 44.7118 20.7685Z" fill="white"/>
<path d="M52.3018 26.8528V11.9514H54.4727V13.4786H54.8174C55.0896 13.0048 55.4983 12.5821 56.0427 12.2096C56.6019 11.8371 57.3971 11.6504 58.4301 11.6504C59.3182 11.6504 60.1282 11.8659 60.8593 12.2951C61.6053 12.7252 62.1998 13.3494 62.6448 14.166C63.1028 14.9686 63.3322 15.944 63.3322 17.0904V17.4136C63.3322 18.56 63.1102 19.5419 62.6662 20.3594C62.2212 21.162 61.6267 21.7788 60.8807 22.2089C60.1357 22.639 59.3182 22.8536 58.4301 22.8536C57.7417 22.8536 57.1611 22.7672 56.6883 22.5954C56.2145 22.4235 55.8346 22.2089 55.5485 21.9507C55.2614 21.6785 55.032 21.3989 54.8601 21.1118H54.5164V26.8528H52.3018ZM57.7845 20.9186C58.7599 20.9186 59.5551 20.6102 60.171 19.9934C60.7878 19.3775 61.0962 18.4959 61.0962 17.3486V17.1554C61.0962 16.023 60.7804 15.1479 60.1496 14.532C59.5337 13.9152 58.745 13.6077 57.7845 13.6077C56.8388 13.6077 56.0501 13.9152 55.4193 14.532C54.8025 15.1479 54.4941 16.023 54.4941 17.1554V17.3486C54.4941 18.4959 54.8025 19.3775 55.4193 19.9934C56.0501 20.6102 56.8388 20.9186 57.7845 20.9186Z" fill="white"/>
<path d="M69.6444 22.8536C68.5696 22.8536 67.6305 22.6316 66.8278 22.1866C66.0243 21.7287 65.3935 21.0905 64.9355 20.273C64.4906 19.4416 64.2686 18.481 64.2686 17.3923V17.134C64.2686 16.0304 64.4906 15.0699 64.9355 14.2524C65.3796 13.421 65.9964 12.7828 66.7842 12.3387C67.5868 11.8798 68.512 11.6504 69.5581 11.6504C70.5762 11.6504 71.4652 11.8798 72.2251 12.3387C72.9989 12.7828 73.6009 13.4061 74.031 14.2097C74.4611 15.0123 74.6757 15.9515 74.6757 17.0263V17.8651H66.5269C66.5547 18.7969 66.8631 19.5419 67.4512 20.1011C68.0531 20.6455 68.7982 20.9186 69.6872 20.9186C70.5186 20.9186 71.1429 20.7319 71.5581 20.3594C71.9882 19.9869 72.318 19.5568 72.5474 19.0691L74.3747 20.0157C74.1741 20.417 73.8805 20.8396 73.4931 21.2837C73.1206 21.7287 72.6264 22.1012 72.0096 22.4022C71.3937 22.7031 70.605 22.8536 69.6444 22.8536ZM66.5482 16.1661H72.4183C72.3607 15.3634 72.0746 14.7401 71.5581 14.2951C71.0425 13.8362 70.3681 13.6077 69.5367 13.6077C68.7053 13.6077 68.0243 13.8362 67.4939 14.2951C66.9783 14.7401 66.6625 15.3634 66.5482 16.1661Z" fill="white"/>
<path d="M76.0527 22.5537V11.9525H78.2237V13.5438H78.5684C78.769 13.1137 79.1276 12.7123 79.6432 12.3398C80.1597 11.9673 80.9261 11.7806 81.9442 11.7806C82.7468 11.7806 83.4566 11.9599 84.0734 12.3185C84.7041 12.6761 85.1983 13.1852 85.5569 13.8447C85.9155 14.4904 86.0939 15.2716 86.0939 16.1885V22.5537H83.8792V16.3604C83.8792 15.4435 83.6498 14.77 83.1918 14.3399C82.7329 13.8949 82.1021 13.6729 81.2995 13.6729C80.3817 13.6729 79.6432 13.9739 79.0839 14.5758C78.5396 15.1778 78.2674 16.0529 78.2674 17.1992V22.5537H76.0527Z" fill="white"/>
<path d="M88.8523 22.5533L86.6367 7.50137H88.9591L90.7659 20.9834H91.1097L93.4321 7.50137H97.4963L99.8187 20.9834H100.162L101.948 7.50137H104.27L102.055 22.5533H97.9905L95.6253 8.87716H95.2816L92.9379 22.5533H88.8523Z" fill="white"/>
<path d="M109.987 22.8535C108.911 22.8535 107.973 22.6315 107.17 22.1865C106.367 21.7285 105.736 21.0903 105.277 20.2729C104.833 19.4414 104.611 18.4809 104.611 17.3922V17.1339C104.611 16.0303 104.833 15.0698 105.277 14.2523C105.722 13.4209 106.338 12.7827 107.127 12.3386C107.93 11.8797 108.855 11.6503 109.901 11.6503C110.919 11.6503 111.808 11.8797 112.567 12.3386C113.342 12.7827 113.944 13.406 114.374 14.2095C114.804 15.0122 115.018 15.9513 115.018 17.0261V17.865H106.869C106.897 18.7967 107.206 19.5418 107.794 20.101C108.396 20.6454 109.141 20.9185 110.03 20.9185C110.861 20.9185 111.485 20.7318 111.901 20.3593C112.331 19.9867 112.661 19.5566 112.89 19.0689L114.717 20.0155C114.517 20.4169 114.223 20.8395 113.836 21.2836C113.463 21.7285 112.969 22.1011 112.352 22.402C111.736 22.703 110.948 22.8535 109.987 22.8535ZM106.89 16.1659H112.761C112.704 15.3633 112.416 14.74 111.901 14.295C111.384 13.8361 110.711 13.6076 109.879 13.6076C109.048 13.6076 108.367 13.8361 107.837 14.295C107.32 14.74 107.005 15.3633 106.89 16.1659Z" fill="white"/>
<path d="M122.525 22.8543C121.493 22.8543 120.698 22.6676 120.138 22.2951C119.594 21.9226 119.185 21.5064 118.913 21.0484H118.568V22.5533H116.396V7.50137H118.612V13.3928H118.956C119.128 13.1058 119.357 12.8336 119.644 12.5754C119.93 12.3032 120.31 12.0811 120.783 11.9093C121.257 11.7374 121.837 11.651 122.525 11.651C123.414 11.651 124.231 11.8666 124.976 12.2957C125.722 12.7258 126.317 13.3501 126.761 14.1667C127.206 14.9841 127.428 15.9586 127.428 17.091V17.4143C127.428 18.5606 127.198 19.5426 126.74 20.36C126.295 21.1627 125.701 21.7795 124.955 22.2096C124.224 22.6397 123.414 22.8543 122.525 22.8543ZM121.88 20.9193C122.841 20.9193 123.629 20.6109 124.245 19.994C124.876 19.3781 125.192 18.4965 125.192 17.3493V17.1561C125.192 16.0237 124.883 15.1486 124.267 14.5327C123.651 13.9158 122.855 13.6084 121.88 13.6084C120.934 13.6084 120.146 13.9158 119.515 14.5327C118.898 15.1486 118.59 16.0237 118.59 17.1561V17.3493C118.59 18.4965 118.898 19.3781 119.515 19.994C120.146 20.6109 120.934 20.9193 121.88 20.9193Z" fill="white"/>
<path d="M128.882 22.5533V11.952H131.098V22.5533H128.882ZM130.001 10.5112C129.571 10.5112 129.206 10.3756 128.905 10.1025C128.618 9.81634 128.475 9.45033 128.475 9.00629C128.475 8.56225 128.618 8.20367 128.905 7.93148C129.206 7.64443 129.571 7.50137 130.001 7.50137C130.445 7.50137 130.811 7.64443 131.098 7.93148C131.384 8.20367 131.528 8.56225 131.528 9.00629C131.528 9.45033 131.384 9.81634 131.098 10.1025C130.811 10.3756 130.445 10.5112 130.001 10.5112Z" fill="white"/>
<path d="M133.094 22.5537V11.9525H135.266V13.5438H135.609C135.81 13.1137 136.169 12.7123 136.685 12.3398C137.201 11.9673 137.968 11.7806 138.986 11.7806C139.789 11.7806 140.498 11.9599 141.114 12.3185C141.745 12.6761 142.24 13.1852 142.598 13.8447C142.957 14.4904 143.136 15.2716 143.136 16.1885V22.5537H140.921V16.3604C140.921 15.4435 140.692 14.77 140.233 14.3399C139.774 13.8949 139.143 13.6729 138.341 13.6729C137.423 13.6729 136.685 13.9739 136.126 14.5758C135.581 15.1778 135.308 16.0529 135.308 17.1992V22.5537H133.094Z" fill="white"/>
<path d="M148.322 22.8535C147.562 22.8535 146.881 22.7244 146.279 22.4661C145.691 22.2088 145.218 21.8289 144.859 21.3272C144.516 20.8247 144.344 20.2162 144.344 19.499C144.344 18.7679 144.516 18.166 144.859 17.6931C145.218 17.2054 145.698 16.8394 146.3 16.596C146.917 16.3526 147.612 16.231 148.386 16.231H151.612V15.5426C151.612 14.9258 151.425 14.4316 151.053 14.059C150.68 13.6856 150.106 13.4998 149.332 13.4998C148.572 13.4998 147.992 13.6791 147.59 14.0368C147.189 14.3953 146.923 14.8617 146.795 15.4348L144.73 14.7688C144.903 14.1947 145.175 13.6791 145.548 13.2202C145.935 12.7474 146.443 12.3674 147.074 12.0804C147.705 11.7933 148.465 11.6503 149.354 11.6503C150.73 11.6503 151.813 12.0014 152.6 12.7037C153.389 13.406 153.783 14.4028 153.783 15.6931V20.0583C153.783 20.4884 153.985 20.703 154.386 20.703H155.289V22.5525H153.632C153.131 22.5525 152.723 22.4234 152.407 22.1652C152.092 21.9078 151.934 21.5558 151.934 21.1117V21.0476H151.612C151.497 21.2622 151.325 21.513 151.095 21.8001C150.866 22.0862 150.529 22.337 150.085 22.5525C149.641 22.7532 149.053 22.8535 148.322 22.8535ZM148.644 21.0253C149.533 21.0253 150.25 20.7745 150.794 20.2729C151.339 19.7573 151.612 19.055 151.612 18.166V17.9505H148.515C147.928 17.9505 147.454 18.0796 147.096 18.3378C146.738 18.5812 146.558 18.9472 146.558 19.4349C146.558 19.9217 146.744 20.3091 147.118 20.5961C147.49 20.8823 147.999 21.0253 148.644 21.0253Z" fill="white"/>
<path d="M156.584 22.5531V11.9518H158.756V13.1994H159.1C159.272 12.7544 159.545 12.432 159.917 12.2314C160.304 12.0168 160.777 11.909 161.337 11.909H162.605V13.9091H161.25C160.534 13.9091 159.946 14.1097 159.487 14.5111C159.028 14.8975 158.799 15.5004 158.799 16.317V22.5531H156.584Z" fill="white"/>
<path d="M167.72 22.8536C166.372 22.8536 165.255 22.5527 164.365 21.9507C163.476 21.3487 162.932 20.4383 162.731 19.2195L164.796 18.7253C164.91 19.3124 165.104 19.7788 165.376 20.1225C165.648 20.4671 165.986 20.7105 166.387 20.8536C166.802 20.9966 167.247 21.0691 167.72 21.0691C168.422 21.0691 168.96 20.9325 169.333 20.6604C169.72 20.3882 169.913 20.037 169.913 19.6069C169.913 19.1768 169.734 18.861 169.375 18.6603C169.018 18.4597 168.487 18.2952 167.784 18.1661L167.053 18.037C166.337 17.9079 165.685 17.7211 165.097 17.4777C164.509 17.2344 164.043 16.8971 163.698 16.467C163.355 16.0369 163.183 15.4851 163.183 14.8116C163.183 13.8074 163.555 13.0336 164.301 12.4892C165.046 11.93 166.036 11.6504 167.268 11.6504C168.458 11.6504 169.433 11.9226 170.193 12.4679C170.967 12.9983 171.468 13.722 171.698 14.6398L169.634 15.2204C169.504 14.5747 169.232 14.1233 168.817 13.865C168.401 13.5928 167.884 13.4563 167.268 13.4563C166.667 13.4563 166.194 13.5715 165.849 13.8009C165.505 14.0155 165.333 14.3239 165.333 14.7252C165.333 15.1553 165.498 15.4712 165.828 15.6718C166.171 15.8725 166.63 16.023 167.203 16.1233L167.957 16.2524C168.717 16.3816 169.412 16.5599 170.042 16.7894C170.673 17.0188 171.167 17.3486 171.526 17.7787C171.898 18.2088 172.085 18.782 172.085 19.4992C172.085 20.56 171.691 21.384 170.903 21.9721C170.114 22.5601 169.053 22.8536 167.72 22.8536Z" fill="white"/>
</svg>
