<svg width="98" height="35" viewBox="0 0 98 35" fill="none" xmlns="http://www.w3.org/2000/svg">
<path opacity="0.5" d="M33.8352 13.6882L29.0786 16.6055C28.9469 16.6863 28.781 16.6862 28.6494 16.6053L17.2711 9.6099C17.1395 9.52898 16.9735 9.5289 16.8418 9.60969L5.43085 16.6096C5.29922 16.6904 5.13339 16.6904 5.00179 16.6096L0.22471 13.6761C0.0713364 13.582 -0.00552506 13.3978 0.0388272 13.2234C0.795855 10.2461 2.3235 7.5219 4.4638 5.32322C4.59779 5.18558 4.8118 5.16122 4.97545 5.26179L11.9703 9.56077C12.1069 9.64474 12.2827 9.54643 12.2827 9.38606V0.961621C12.2827 0.774612 12.4085 0.608291 12.5895 0.561271C14.0359 0.185529 15.5263 -0.00377858 17.0237 5.71381e-05C18.5846 5.71381e-05 20.1383 0.20909 21.6476 0.623756C21.826 0.672779 21.9493 0.837979 21.9493 1.02302V9.26335C21.9493 9.42364 22.125 9.52196 22.2616 9.43814L29.0764 5.25719C29.2399 5.15687 29.4536 5.18119 29.5876 5.31854C31.7359 7.52162 33.2677 10.2538 34.0214 13.2359C34.0655 13.4102 33.9885 13.5941 33.8352 13.6882Z" fill="white"/>
<path d="M34.0228 21.6888C33.2853 24.671 31.7767 27.4104 29.645 29.6248C29.511 29.7639 29.2957 29.7888 29.1314 29.6876L22.2614 25.4562C22.1248 25.372 21.9488 25.4703 21.9488 25.6308V33.977C21.9488 34.162 21.8255 34.3272 21.6471 34.3762C20.1378 34.7909 18.5841 34.9999 17.0232 34.9999C15.5258 35.0038 14.0355 34.8145 12.589 34.4387C12.408 34.3917 12.2822 34.2254 12.2822 34.0384V25.5439C12.2822 25.3836 12.1066 25.2853 11.9699 25.3691L4.91059 29.7008C4.74638 29.8016 4.53163 29.7766 4.39787 29.6379C2.26585 27.4276 0.75348 24.6922 0.01197 21.714C-0.0313498 21.54 0.0456616 21.3569 0.198496 21.2632L6.39288 17.4631L16.8373 11.0534C16.969 10.9726 17.1349 10.9726 17.2666 11.0536L27.6864 17.459L33.8364 21.2388C33.9889 21.3325 34.0658 21.5151 34.0228 21.6888Z" fill="white"/>
<path d="M42.3257 15.9548C42.2706 15.9662 42.2136 15.9637 42.1597 15.9474C42.1059 15.9311 42.057 15.9016 42.0174 15.8616C41.9789 15.8211 41.9505 15.7721 41.9343 15.7186C41.9181 15.665 41.9147 15.6085 41.9243 15.5534V5.55344C41.9243 5.25954 42.0605 5.152 42.3257 5.152H45.8633C49.0891 5.152 50.6661 6.30971 50.6661 8.77922C50.6867 9.37947 50.5233 9.97165 50.1979 10.4765C49.8725 10.9812 49.4006 11.3745 48.8454 11.6036L51.2038 15.4602C51.2689 15.5396 51.3078 15.6373 51.3149 15.7398C51.3149 15.8759 51.1894 15.9548 50.9242 15.9548H48.9242C48.7577 15.9809 48.5873 15.9493 48.4412 15.8652C48.2952 15.7811 48.1823 15.6496 48.1213 15.4924L45.6518 11.1914C45.6046 11.116 45.5729 11.0319 45.5586 10.9441C45.5586 10.8366 45.6698 10.772 45.8669 10.7434C47.0568 10.6036 47.8884 10.0265 47.8884 9.02654C47.8884 8.02655 47.1715 7.48174 45.806 7.48174H44.8346C44.6554 7.48174 44.6052 7.52834 44.6052 7.71472V15.539C44.6052 15.8329 44.4834 15.9405 44.1931 15.9405L42.3257 15.9548Z" fill="white"/>
<path d="M59.7055 15.5354C59.7129 15.5913 59.7055 15.6482 59.684 15.7003C59.6655 15.7532 59.6348 15.8011 59.5944 15.8401C59.5532 15.8777 59.5042 15.9058 59.451 15.9225C59.3977 15.9392 59.3415 15.9441 59.2862 15.9368H52.7808C52.7278 15.9491 52.6726 15.9491 52.6196 15.9368C52.569 15.9173 52.5228 15.888 52.4834 15.8508C52.444 15.812 52.4141 15.7647 52.3961 15.7125C52.3781 15.6602 52.3724 15.6046 52.3794 15.5498V5.54982C52.3794 5.25591 52.5192 5.14839 52.7808 5.14839H59.2575C59.3117 5.13558 59.3682 5.13558 59.4224 5.14839C59.4763 5.16536 59.5254 5.19483 59.5657 5.23441C59.6073 5.27238 59.6382 5.32058 59.6554 5.3742C59.6741 5.427 59.6803 5.48346 59.6733 5.53907V7.20213C59.6733 7.49962 59.5514 7.60358 59.2575 7.60358H55.3077C55.1249 7.60358 55.0783 7.66807 55.0783 7.84012V9.05157C55.0783 9.23438 55.1249 9.28097 55.3077 9.28097H58.7665C59.0568 9.28097 59.1643 9.40284 59.1643 9.69675V11.3491C59.1643 11.6107 59.0568 11.7469 58.7665 11.7469H55.3077C55.1249 11.7469 55.0783 11.8114 55.0783 11.9799V13.2487C55.0783 13.4172 55.1249 13.4781 55.3077 13.4781H59.2862C59.5801 13.4781 59.7055 13.5856 59.7055 13.8795L59.7055 15.5354Z" fill="white"/>
<path d="M65.6839 5.13407C69.4257 5.13407 71.5872 7.19141 71.5872 10.4136C71.5872 13.7756 69.3039 15.9369 65.4151 15.9369H61.8846C61.8306 15.9512 61.7738 15.9512 61.7198 15.9369C61.666 15.9219 61.6176 15.8921 61.58 15.8508C61.5409 15.8115 61.5114 15.7637 61.494 15.7111C61.4812 15.6569 61.4812 15.6004 61.494 15.5462V5.54625C61.494 5.25235 61.6302 5.14482 61.8918 5.14482L65.6839 5.13407ZM64.1714 13.238C64.1714 13.4064 64.2144 13.4673 64.4008 13.4673H65.4223C67.6409 13.4673 68.8272 12.3562 68.8272 10.4889C68.8272 8.72903 67.6409 7.60001 65.4832 7.60001H64.4079C64.2215 7.60001 64.1785 7.66452 64.1785 7.83657L64.1714 13.238Z" fill="white"/>
<path d="M44.6052 29.2629C44.6052 29.5568 44.4833 29.6643 44.193 29.6643H42.3256C42.2725 29.6743 42.2177 29.6714 42.1659 29.6558C42.1142 29.6402 42.0669 29.6124 42.0281 29.5747C41.9896 29.5341 41.9612 29.4851 41.945 29.4316C41.9288 29.3781 41.9254 29.3216 41.935 29.2665V19.2665C41.935 18.9726 42.0712 18.8651 42.3364 18.8651H45.9564C49.1368 18.8651 50.7258 20.1674 50.7234 22.7719C50.7234 25.4063 49.0102 26.7647 45.8525 26.7647H44.8453C44.6661 26.7647 44.6159 26.8292 44.6159 26.9977L44.6052 29.2629ZM44.6052 24.0622C44.6052 24.2342 44.6554 24.2952 44.8346 24.2952H45.8417C47.2109 24.2952 47.9349 23.7826 47.9349 22.7826C47.9349 21.7826 47.2503 21.331 45.8417 21.331H44.8346C44.6554 21.331 44.6052 21.3919 44.6052 21.564V24.0622Z" fill="white"/>
<path d="M62.9672 24.263C63.0138 27.4888 60.4582 29.9117 57.1536 29.8651C53.8991 29.9117 51.3544 27.4888 51.4189 24.2952C51.3758 21.0695 53.9278 18.6143 57.1894 18.6609C60.5012 18.6143 63.0102 21.0372 62.9672 24.263ZM60.193 24.263C60.193 22.3849 58.8955 21.1161 57.1858 21.1161C55.4762 21.1161 54.193 22.3956 54.193 24.263C54.193 26.1304 55.4547 27.3848 57.1679 27.3848C57.5733 27.389 57.9753 27.3111 58.3498 27.1558C58.7243 27.0006 59.0635 26.7713 59.3471 26.4816C59.6301 26.1906 59.8509 25.8452 59.9963 25.4663C60.1417 25.0874 60.2086 24.6829 60.193 24.2773V24.263Z" fill="white"/>
<path d="M64.881 29.6644C64.827 29.6787 64.7702 29.6787 64.7162 29.6644C64.663 29.6499 64.6148 29.6214 64.5764 29.5819C64.5363 29.5424 64.5068 29.4935 64.4906 29.4397C64.4743 29.3858 64.4717 29.3288 64.4832 29.2737V19.2738C64.4832 18.9799 64.6194 18.8723 64.881 18.8723H66.7591C67.053 18.8723 67.1785 18.9799 67.1785 19.2738V29.2737C67.1785 29.5676 67.053 29.6751 66.7591 29.6751L64.881 29.6644Z" fill="white"/>
<path d="M78.9457 23.6142V29.2629C78.9457 29.5569 78.8238 29.6644 78.5298 29.6644H76.6623C76.6084 29.6787 76.5516 29.6787 76.4975 29.6644C76.4449 29.649 76.3967 29.6206 76.3579 29.5819C76.3193 29.5414 76.2909 29.4924 76.2745 29.4389C76.2584 29.3853 76.255 29.3288 76.2646 29.2737V23.7182C76.2646 22.0981 75.494 21.1411 74.0602 21.1411C72.6267 21.1411 71.8703 22.0981 71.8703 23.7182V29.2737C71.8703 29.5676 71.7448 29.6751 71.4547 29.6751H69.5836C69.5307 29.6894 69.4753 29.6894 69.4224 29.6751C69.3682 29.6606 69.3187 29.6321 69.2791 29.5925C69.2395 29.5529 69.2109 29.5035 69.1966 29.4493C69.1838 29.3951 69.1838 29.3387 69.1966 29.2844V23.6142C69.1966 20.3884 71.1859 18.6609 74.1141 18.6609C76.9634 18.6573 78.9457 20.3132 78.9457 23.6142Z" fill="white"/>
<path d="M85.5798 21.3311C85.4113 21.3311 85.3504 21.392 85.3504 21.564V29.2629C85.3504 29.5246 85.2394 29.6643 84.9454 29.6643H83.0636C83.0108 29.6766 82.9555 29.6766 82.9024 29.6643C82.8511 29.6464 82.8045 29.617 82.7662 29.5783C82.7271 29.539 82.6977 29.4911 82.6802 29.4385C82.668 29.3855 82.668 29.3303 82.6802 29.2772V21.564C82.6802 21.392 82.6193 21.3311 82.4508 21.3311H80.0172C79.9617 21.3402 79.9049 21.3362 79.8515 21.3194C79.7979 21.3026 79.7492 21.2734 79.7088 21.2343C79.6695 21.1959 79.6411 21.1476 79.6265 21.0945C79.6122 21.0405 79.6122 20.9836 79.6265 20.9296V19.263C79.6265 18.9691 79.7627 18.8615 80.0278 18.8615H88.0458C88.3361 18.8615 88.4471 18.9691 88.4471 19.263V20.9296C88.4471 21.1913 88.3362 21.3311 88.0458 21.3311H85.5798Z" fill="white"/>
<path d="M97.0888 20.2952C97.0896 20.4078 97.0528 20.5174 96.9849 20.607L96.1496 21.9332C96.0564 22.0694 95.9668 22.1482 95.8558 22.1482C95.7491 22.1373 95.648 22.0949 95.5654 22.0264C94.8755 21.4506 94.0121 21.1236 93.1138 21.0981C92.2965 21.0981 91.7842 21.4565 91.7842 21.9655C91.7842 22.4744 92.2465 22.736 93.6048 23.0586C96.0064 23.6464 97.1211 24.5568 97.1211 26.3776C97.1211 28.5532 95.4079 29.865 92.82 29.865C91.3946 29.8893 90.0038 29.4265 88.8774 28.5532C88.8154 28.5168 88.7625 28.4665 88.7232 28.4063C88.6826 28.3473 88.6555 28.2799 88.6443 28.2091C88.6521 28.0864 88.6943 27.9684 88.7662 27.8686L89.5691 26.5855C89.5965 26.5229 89.6397 26.4685 89.6944 26.4278C89.7488 26.3888 89.8113 26.3631 89.8772 26.3525C89.9884 26.3676 90.0924 26.4164 90.1749 26.4923C90.9328 27.078 91.8587 27.4046 92.8164 27.4242C93.8056 27.4242 94.3468 27.0658 94.3468 26.5425C94.3468 26.0192 93.8988 25.7683 92.4041 25.417C90.1533 24.8794 89.0099 24.012 89.0099 22.116C89.0099 19.9404 90.7268 18.6572 93.1245 18.6572C94.4992 18.6429 95.8353 19.1123 96.8987 19.9834C96.9523 20.0145 96.9966 20.059 97.0279 20.1124C97.0643 20.1666 97.0854 20.2299 97.0888 20.2952Z" fill="white"/>
</svg>
