<svg width="117" height="35" viewBox="0 0 117 35" fill="none" xmlns="http://www.w3.org/2000/svg">
<path fill-rule="evenodd" clip-rule="evenodd" d="M54.3418 15.9243C53.5431 15.3211 53.18 14.9859 52.8169 14.7178C51.9456 15.5892 51.0742 16.4606 50.2754 17.3319C50.2028 17.466 50.6385 18.0022 50.929 18.3374H51.0742C52.0908 17.6 53.1074 16.8627 54.3418 15.9243ZM32.7029 16.5946C31.8315 15.6562 31.3232 15.12 30.8149 14.5838C30.083 15.2908 29.4489 16.0788 28.9269 16.9298C28.8543 17.1308 29.9435 18.2033 30.234 18.1363C31.1216 17.7166 31.9506 17.199 32.7029 16.5946ZM29.7983 21.7558C26.4682 23.8763 23.9315 26.897 22.5369 30.4025C22.1738 31.2068 22.6821 32.2792 22.7547 33.2176C23.6261 32.6814 24.8605 32.2792 25.2236 31.5419C26.8211 28.4586 28.2008 25.2413 29.7983 21.7558ZM16.6552 18.4714C18.4705 16.6616 20.2132 14.8519 22.0286 13.1762C22.4844 12.8897 23.0067 12.7061 23.5535 12.6399C23.638 13.2403 23.6865 13.8445 23.6987 14.4497C23.6261 15.5222 23.3356 16.5946 23.5535 17.6C23.6261 17.9352 25.0058 18.1363 25.8771 18.2033C26.8211 18.2703 27.2568 17.9352 27.3294 16.9298C27.402 15.053 29.1448 14.0475 30.6697 13.1091C30.9601 12.9081 32.1219 13.3102 32.3398 13.7124C32.8662 14.8736 33.3267 16.0594 33.7195 17.2649C34.36 17.3513 35.0138 17.2488 35.5876 16.9719C36.1613 16.6951 36.6257 16.2581 36.9145 15.7233C37.3562 15.0357 37.95 14.4419 38.6572 13.9805C39.1655 13.6454 40.2547 13.2432 40.6178 13.4443C41.1909 13.9083 41.5538 14.5543 41.6344 15.2541C41.6919 15.8647 41.6179 16.4798 41.4165 17.0638C41.9339 16.5768 42.4924 16.1286 43.0867 15.7233C43.595 15.4551 44.3211 15.12 44.6842 15.2541C45.1199 15.3881 45.2651 16.1254 45.4829 16.6616C45.7734 17.2649 45.9912 18.3374 46.4269 18.4714C47.5161 18.6725 47.8066 17.8011 48.2423 16.9968C48.9272 15.6735 49.8897 14.4888 51.0742 13.5113C52.4539 12.3718 54.0514 12.9081 54.9954 14.3827C55.7215 15.5222 56.6655 16.5276 55.7941 17.9352C55.7215 18.0692 56.4476 18.8066 56.5203 18.8066C57.1012 18.5384 58.0452 18.2033 58.1904 17.7341C58.9891 15.8573 59.57 13.9135 60.2236 11.9697C60.0057 11.7016 59.57 11.2994 59.207 10.8972C59.6427 10.6291 60.151 10.428 60.514 10.1599C61.0471 9.81096 61.5344 9.40608 61.9663 8.95339C62.9829 7.61283 63.8543 6.1382 64.7983 4.73061L65.8875 2.92085C66.1779 3.12193 66.4684 3.32301 66.8314 3.59113C66.9767 5.93712 64.4352 7.47877 64.0721 9.75773C67.1219 9.42259 70.1717 8.95339 73.2215 8.75231C76.7069 8.55122 80.1198 8.55122 83.6053 8.61825C84.6059 8.73815 85.5835 8.98631 86.5098 9.35556C86.5098 9.48962 86.4372 9.6907 86.4372 9.82476C86.0622 9.93507 85.6683 9.98052 85.2754 9.95882C78.2318 9.48962 71.3335 10.428 64.3626 11.2324C63.9269 11.2994 63.2007 11.4334 63.0555 11.7686C61.9941 13.6668 61.0957 15.639 60.3688 17.6671C60.0057 18.6725 60.9497 19.3428 62.1115 18.8066C63.0406 18.3971 63.8592 17.8018 64.5078 17.0638C65.3065 16.0584 65.8148 14.8519 66.6136 13.8465C66.9041 13.4443 67.5576 13.2432 68.0659 12.9751C68.3563 13.5783 68.8646 14.1146 68.8646 14.6508C68.6571 15.2893 68.3112 15.8821 67.848 16.3935C67.4124 16.9968 66.9041 17.533 66.4684 18.1363C66.5392 18.2848 66.6375 18.4209 66.7588 18.5384C67.2882 18.4852 67.8038 18.3492 68.2837 18.1363C69.736 17.0638 71.0431 15.8573 72.4227 14.7178C72.8935 14.4279 73.4071 14.2022 73.9476 14.0475C74.193 14.5091 74.3408 15.0095 74.3833 15.5222C74.2381 16.1925 73.7298 16.7287 73.5119 17.399C73.4419 17.598 73.4186 17.8086 73.4436 18.0167C73.4686 18.2247 73.5415 18.4254 73.6572 18.6055C73.8239 18.7144 74.0172 18.7837 74.2199 18.807C74.4225 18.8304 74.6283 18.8072 74.819 18.7395C76.9248 18.3374 78.1592 16.9968 78.8854 15.2541C79.6115 13.4443 81.0638 12.841 83.097 12.774C85.5659 12.774 86.4372 13.7794 85.4932 15.8573C85.1896 16.5752 84.8254 17.2699 84.404 17.9352C85.2738 18.147 86.1961 18.076 87.0159 17.7343C87.8357 17.3925 88.5032 16.8008 88.9061 16.0584C89.6478 15.0407 90.4732 14.0771 91.375 13.1762C91.5425 13.0437 91.7421 12.9501 91.9569 12.9035C92.1717 12.8568 92.3954 12.8584 92.6094 12.9081C92.7805 13.0768 92.9084 13.2788 92.9838 13.4992C93.0592 13.7196 93.0801 13.9528 93.0451 14.1816C92.8999 14.7849 92.319 15.2541 92.1737 15.8573C91.8833 17.0638 92.1011 18.1363 93.7712 18.4714C95.2961 18.7395 96.1675 18.3374 96.6032 16.7957C97.1366 15.1476 97.7916 13.5351 98.5638 11.9697C98.2007 11.5675 97.765 11.1653 97.4019 10.7632C97.8646 10.5343 98.3023 10.265 98.709 9.95882C99.242 9.60987 99.7294 9.205 100.161 8.75231C101.178 7.41174 102.049 5.93712 102.993 4.52952C103.321 3.90251 103.855 3.38664 104.518 3.0549C105.172 5.73603 102.63 7.21066 102.34 9.55665C106.987 9.35556 111.634 7.74688 116.282 8.88636C116.282 9.08745 116.354 9.22151 116.354 9.42259C115.929 9.56526 115.492 9.6773 115.047 9.75773C111.053 10.2269 106.987 10.5621 103.066 11.0983C102.575 11.1952 102.111 11.3814 101.699 11.6461C101.288 11.9108 100.938 12.2487 100.67 12.6399C99.8258 13.9656 99.1671 15.3845 98.709 16.8627C98.6151 17.1742 98.6058 17.5023 98.6818 17.8179C98.7578 18.1335 98.9167 18.427 99.1447 18.6725C99.3625 18.9406 100.452 18.7395 101.033 18.4714C101.96 18.0063 102.857 17.4916 103.719 16.9298C103.937 19.3428 100.815 21.0185 98.0555 20.0801C97.453 19.8697 96.7978 19.8232 96.1675 19.946C92.6094 20.8174 91.6654 20.4152 90.0679 17.6C88.8335 18.4044 87.6717 19.2087 86.4372 19.946C84.8397 20.8174 83.097 20.6163 82.2982 19.6109C81.3542 18.3374 81.9352 17.2649 83.097 16.3265C83.4204 16.0083 83.6897 15.6467 83.8957 15.2541C81.209 14.5167 80.7733 14.6508 79.6841 16.5946C79.234 17.6445 78.4824 18.5613 77.51 19.2463C76.5376 19.9313 75.3813 20.3586 74.1655 20.4823C72.0597 20.7504 71.3335 20.2812 71.0431 18.1363C70.2896 18.7206 69.4603 19.2159 68.5742 19.6109C67.284 19.8702 65.9722 20.0271 64.653 20.0801C64.1939 20.1136 63.7325 20.1136 63.2734 20.0801C62.8461 20.2013 62.409 20.2909 61.9663 20.3482C60.1511 20.4264 58.3325 20.404 56.5203 20.2812C55.5037 20.2142 54.6323 19.6109 53.4705 19.1417C52.236 19.879 50.8564 21.0855 48.9684 19.6779C48.8232 19.5439 48.3875 19.6779 48.097 19.745C45.1199 20.4823 44.902 20.4152 43.4497 17.8682C42.7554 18.6314 42.0031 19.3482 41.1987 20.0131C40.6904 20.3482 39.8916 20.2812 39.2381 20.4152C39.0929 19.745 38.7298 19.0076 38.8751 18.4044C39.1492 17.5461 39.5656 16.7321 40.1095 15.9914C39.5286 15.9914 39.3833 15.9243 39.3107 15.9914C35.3896 19.0076 30.7423 21.3536 29.29 26.3808C28.6365 28.7267 27.2568 31.0057 26.095 33.2176C25.5141 34.3571 24.6427 35.4296 22.8274 34.8263C22.4803 34.7372 22.1571 34.5826 21.8782 34.3722C21.5993 34.1619 21.3707 33.9004 21.2069 33.6043C21.0431 33.3082 20.9476 32.9839 20.9266 32.652C20.9055 32.3201 20.9593 31.9877 21.0846 31.676C21.8834 29.5311 22.6821 27.3862 24.1344 25.5764C25.9498 23.2975 28.346 21.4207 30.8149 19.0747C29.635 19.1734 28.4679 19.3754 27.3294 19.6779C24.0618 20.6833 22.3917 20.0801 21.2298 17.1979C20.2132 17.9352 19.2693 18.6055 18.3253 19.2758C17.5265 19.879 16.9456 19.745 16.5099 18.8736C16.4373 18.7395 16.5099 18.6055 16.6552 18.4714Z" fill="white"/>
<path fill-rule="evenodd" clip-rule="evenodd" d="M16.6548 18.4713L16.2917 18.8065C14.5578 20.2111 12.4953 21.2263 10.2656 21.7729C8.03591 22.3194 5.69949 22.3823 3.43906 21.9568C2.73848 21.8679 2.0762 21.6083 1.52033 21.2048C0.964448 20.8013 0.535028 20.2684 0.27622 19.6609C0.0174126 19.0534 -0.0614436 18.3933 0.0477601 17.7483C0.156964 17.1034 0.450287 16.4969 0.897568 15.9913C1.27598 15.7372 1.69162 15.5341 2.13201 15.388C2.33098 15.7098 2.50098 16.046 2.6403 16.3935C2.65237 16.9529 2.62812 17.5124 2.56769 18.0692C2.49508 20.013 3.07599 20.6833 5.25441 20.6833C8.35703 20.7915 11.4063 19.9163 13.8955 18.2032C15.8561 16.8627 15.8561 15.321 13.7502 14.1145C12.3914 13.3982 10.9556 12.8141 9.46602 12.3718C8.08635 11.9026 6.63407 11.7015 5.32702 11.2323C2.34985 10.1598 1.62371 8.28305 3.29383 5.803C5.61748 2.45158 9.10295 0.708847 13.3146 0.0385639C16.8 -0.296578 18.9785 1.58022 18.3975 4.59649C18.2065 5.10793 17.8824 5.56826 17.4536 5.93706C17.0905 5.53489 16.5096 5.19974 16.2917 4.79757C14.8395 1.11102 14.1133 0.775875 10.2648 2.65267C8.36503 3.61737 6.66806 4.88868 5.25441 6.40625C3.43906 8.35007 4.23781 10.0258 7.06976 10.562C8.74157 10.8389 10.3912 11.2196 12.0075 11.7015C13.1161 12.1031 14.1463 12.6691 15.0573 13.3772C16.8726 14.7848 17.8166 16.3935 16.6548 18.4713Z" fill="white"/>
<path fill-rule="evenodd" clip-rule="evenodd" d="M25.3689 10.294C24.5702 9.35564 23.7714 8.75238 23.481 8.01507C23.3358 7.67993 24.2071 7.07667 24.6428 6.60748C25.3314 7.25877 25.9402 7.97808 26.4582 8.75238C26.676 8.95347 25.9499 9.55672 25.3689 10.294Z" fill="white"/>
<path fill-rule="evenodd" clip-rule="evenodd" d="M94.3515 10.8303C94.061 11.1655 93.698 11.7687 93.4075 11.7687C92.7574 11.628 92.1247 11.4259 91.5195 11.1655C91.6648 10.8303 91.81 10.5622 91.9552 10.2271L94.3515 10.8303Z" fill="white"/>
</svg>
