<svg width="19" height="12" viewBox="0 0 19 12" fill="none" xmlns="http://www.w3.org/2000/svg">
<path fill-rule="evenodd" clip-rule="evenodd" d="M1.26598 0.427553C1.93669 0.122854 2.72724 0.419192 3.03194 1.0899L5.72778 7.01945L8.42269 1.0899C8.63914 0.614274 9.11384 0.308645 9.63684 0.308645C10.1608 0.308645 10.6355 0.614274 10.8519 1.0899L13.5468 7.01945L16.2418 1.0899C16.5464 0.419192 17.3379 0.122854 18.0086 0.427553C18.6793 0.73318 18.9757 1.52373 18.671 2.19443L14.761 10.7957C14.5445 11.2722 14.0698 11.5779 13.5468 11.5779C13.0238 11.5779 12.5491 11.2722 12.3318 10.7957L9.63684 4.86705L6.94193 10.7957C6.72548 11.2722 6.25078 11.5779 5.72778 11.5779C5.20385 11.5779 4.72915 11.2722 4.5127 10.7957L0.603634 2.19443C0.298007 1.52373 0.595274 0.73318 1.26598 0.427553Z" fill="white"/>
</svg>
