<svg width="30" height="30" viewBox="0 0 30 30" fill="none" xmlns="http://www.w3.org/2000/svg">
<path d="M20.2375 2.5H9.7625C5.2125 2.5 2.5 5.2125 2.5 9.7625V20.225C2.5 24.7875 5.2125 27.5 9.7625 27.5H20.225C24.775 27.5 27.4875 24.7875 27.4875 20.2375V9.7625C27.5 5.2125 24.7875 2.5 20.2375 2.5ZM18.4875 15.6625L14.075 20.075C13.8875 20.2625 13.65 20.35 13.4125 20.35C13.175 20.35 12.9375 20.2625 12.75 20.075C12.3875 19.7125 12.3875 19.1125 12.75 18.75L16.5 15L12.75 11.25C12.3875 10.8875 12.3875 10.2875 12.75 9.925C13.1125 9.5625 13.7125 9.5625 14.075 9.925L18.4875 14.3375C18.8625 14.7 18.8625 15.3 18.4875 15.6625Z" fill="#292D32"/>
</svg>
